<svg width="183" height="82" viewBox="0 0 183 82" xmlns="http://www.w3.org/2000/svg">
    <path fill-rule="evenodd" clip-rule="evenodd" d="M0 25.293V37.943H37.003C41.304 37.943 46.799 33.966 46.799 27.387C46.799 24.741 47.811 23.015 44.701 19.515L39.968 13.907C37.256 11.377 40.292 11.377 42.57 11.377H58.193V37.943H70.583V11.377H87.282V0H33.208C26.629 0 23.412 6.317 23.593 9.606C23.775 12.895 24.38 17.033 29.847 22.004C34.834 26.537 27.378 25.293 26.629 25.293H0V25.293ZM114.679 0H94.691L83.486 37.944H95.956L97.979 32.631H111.135L113.088 37.944H125.303L114.679 0V0ZM100.763 23.522L105.064 9.606L109.113 23.522H100.763V23.522ZM164.774 25.293C159.967 25.293 159.967 23.522 159.967 23.522C164.086 23.522 167.738 17.521 167.738 11.377C167.738 5.233 161.738 0 156.929 0H130.038V37.944H143.702V25.294C143.702 25.294 149.52 32.125 152.556 34.908C155.593 37.691 155.845 37.944 159.966 37.944H181.415V25.294C181.417 25.293 169.581 25.293 164.774 25.293V25.293ZM152.376 16.438H143.704V9.606H152.376C156.352 9.606 157.04 16.438 152.376 16.438ZM0 42.75H13.979L17.521 55.402L20.81 42.75H35.485L39.28 55.402L43.076 42.75H55.22L44.087 80.703H32.955L28.077 62.738L22.581 80.703H11.196L0 42.75ZM83.909 42.969H63.921L52.717 80.912H65.186L67.21 75.6H80.367L82.32 80.912H94.536L83.909 42.969ZM69.994 66.49L74.295 52.574L78.343 66.49H69.994ZM165.026 54.137C162.751 54.137 160.27 54.403 162.983 56.932L167.717 62.541C170.826 66.041 170.776 67.5 170.776 70.148C170.776 76.726 164.268 80.703 159.967 80.703L130.071 80.904C125.952 80.904 125.7 80.652 122.663 77.869C119.628 75.086 113.808 68.254 113.808 68.254V80.904H100.146V42.961H127.037C131.844 42.961 137.846 48.195 137.846 54.338C137.846 60.483 134.194 66.483 130.073 66.483C130.073 66.483 131.885 68.305 134.921 68.305C137.958 68.305 149.648 68.317 149.648 68.317C150.396 68.317 157.851 69.561 152.865 65.028C147.398 60.057 146.793 55.921 146.611 52.632C146.429 49.343 149.273 42.751 155.849 42.751H181.419V54.138H165.026V54.137V54.137ZM122.481 59.398H113.807V52.566H122.481C126.458 52.566 127.145 59.398 122.481 59.398Z" transform="translate(0.668999 0.922001)" fill="black"/>
</svg>
