<?xml version="1.0" standalone="no"?>
<!DOCTYPE svg PUBLIC "-//W3C//DTD SVG 20010904//EN"
 "http://www.w3.org/TR/2001/REC-SVG-20010904/DTD/svg10.dtd">
<svg version="1.0" xmlns="http://www.w3.org/2000/svg"
 width="1464.000000pt" height="1464.000000pt" viewBox="0 0 1464.000000 1464.000000"
 preserveAspectRatio="xMidYMid meet">
<metadata>
Created by potrace 1.11, written by Peter Selinger 2001-2013
</metadata>
<g transform="translate(0.000000,1464.000000) scale(0.100000,-0.100000)"
fill="#000000" stroke="none">
<path d="M2637 10524 c-1 -1 -22 -5 -47 -9 -269 -37 -515 -253 -610 -536 -31
-91 -32 -95 -35 -189 -2 -77 14 -242 28 -280 4 -8 8 -28 11 -45 7 -44 44 -150
66 -190 11 -19 16 -35 12 -35 -4 0 -2 -4 3 -8 9 -7 34 -49 59 -99 6 -13 14
-23 19 -23 4 0 7 -7 7 -15 0 -8 4 -15 8 -15 4 0 15 -12 24 -27 9 -16 25 -37
35 -48 10 -11 29 -33 41 -50 29 -37 88 -99 173 -182 88 -85 111 -111 126 -140
55 -107 -5 -144 -224 -137 -202 6 -2264 10 -2272 4 -4 -3 -8 -231 -8 -508 l1
-502 1535 2 1536 3 80 26 c340 112 565 403 590 764 13 195 14 351 2 395 -25
88 -78 182 -144 257 -15 17 -35 40 -43 50 -91 109 -118 141 -135 161 -11 13
-28 33 -38 45 -10 12 -37 44 -60 72 -76 89 -171 200 -178 205 -3 3 -13 19 -22
35 -13 26 -13 34 -1 57 27 51 62 54 844 53 l685 0 3 -1063 2 -1062 495 0 495
0 1 73 c1 39 0 77 -1 82 -1 6 -2 15 -2 20 1 9 2 114 1 155 0 8 0 44 0 80 1 36
1 72 0 80 0 8 0 44 0 80 1 36 0 74 0 85 0 11 0 346 0 745 l1 725 667 0 668 0
1 445 c0 245 -1 450 -3 456 -3 7 -653 10 -2199 10 -1207 0 -2195 -1 -2197 -2z"/>
<path d="M7632 10521 c-5 -3 -16 -35 -26 -71 -10 -36 -24 -83 -31 -105 -7 -22
-31 -103 -53 -180 -98 -333 -205 -696 -228 -770 -13 -44 -26 -89 -29 -100 -2
-11 -8 -33 -14 -50 -5 -16 -28 -93 -51 -170 -23 -77 -57 -192 -76 -255 -19
-63 -37 -124 -39 -136 -3 -11 -14 -50 -26 -85 -11 -35 -22 -72 -24 -82 -2 -10
-15 -55 -29 -100 -43 -142 -78 -262 -80 -272 -1 -5 -15 -50 -29 -100 -15 -49
-37 -121 -48 -160 -12 -38 -27 -89 -35 -112 -7 -23 -16 -52 -18 -65 -3 -13
-16 -59 -29 -103 -14 -44 -26 -87 -28 -95 -4 -13 55 -15 476 -18 264 -1 489 0
500 2 13 4 26 23 39 58 10 29 23 64 29 78 6 14 11 27 12 30 4 12 17 46 25 65
5 11 21 54 36 95 15 41 30 80 35 85 5 7 185 10 530 10 l522 0 44 -120 c25 -66
48 -129 53 -140 9 -23 33 -85 50 -132 l12 -33 489 0 488 0 -14 48 c-8 26 -21
72 -29 102 -8 30 -25 89 -36 130 -12 41 -28 98 -35 125 -8 28 -30 106 -50 175
-19 69 -37 132 -39 140 -3 8 -12 42 -21 75 -9 33 -20 74 -25 90 -4 17 -15 55
-24 86 -9 31 -19 65 -21 75 -5 23 -17 64 -45 164 -12 41 -26 89 -30 105 -5 17
-13 46 -19 65 -6 19 -17 60 -25 90 -8 30 -22 82 -31 115 -10 33 -19 67 -21 75
-2 8 -15 56 -29 105 -30 104 -55 193 -60 215 -2 8 -13 47 -25 85 -12 39 -23
77 -24 85 -3 12 -23 84 -31 110 -1 3 -5 19 -9 35 -4 17 -11 41 -16 55 -5 14
-25 86 -45 160 -20 74 -43 155 -51 180 -7 25 -15 54 -17 65 -2 11 -7 27 -10
35 -3 8 -9 29 -13 45 -4 17 -8 32 -9 35 -7 23 -28 97 -30 105 -1 6 -5 22 -9
36 l-7 25 -795 0 c-437 0 -798 -2 -802 -5z m841 -808 c4 -26 23 -89 117 -403
17 -58 33 -112 34 -120 2 -8 25 -87 51 -175 25 -88 48 -167 50 -175 2 -8 11
-37 20 -65 17 -53 26 -90 29 -115 1 -13 -43 -15 -322 -15 -178 0 -326 3 -328
7 -3 4 2 29 10 55 17 58 176 571 218 703 47 151 89 293 95 317 7 29 19 22 26
-14z"/>
<path d="M10462 10516 c-4 -6 -7 -688 -7 -1516 l1 -1505 547 -3 547 -2 0 506
c0 449 2 505 15 494 8 -7 15 -19 15 -26 0 -8 4 -14 8 -14 5 0 40 -37 78 -81
38 -45 78 -91 89 -103 11 -12 43 -47 70 -77 28 -31 84 -93 125 -138 162 -178
426 -435 479 -465 9 -5 22 -16 29 -23 7 -7 20 -13 28 -13 8 0 14 -4 14 -8 0
-7 28 -17 110 -39 14 -4 459 -9 990 -10 l966 -4 0 506 c0 278 -2 505 -5 506
-3 0 -334 2 -736 3 -652 2 -737 4 -799 19 -79 20 -150 60 -165 94 -12 27 -11
28 58 37 107 16 255 125 338 251 14 22 34 51 43 65 10 14 30 52 44 85 15 33
32 69 37 80 5 11 11 30 14 42 2 12 8 30 13 40 13 26 36 120 47 195 14 94 16
118 14 272 -1 85 -77 306 -131 381 -99 136 -164 208 -238 264 -19 14 -37 28
-40 31 -18 18 -77 53 -150 88 -78 37 -111 49 -195 68 -53 12 -2244 12 -2253 0z
m1878 -778 c113 -51 180 -190 155 -323 -16 -88 -49 -133 -130 -178 -39 -21
-49 -22 -427 -25 l-388 -3 0 274 0 274 378 -1 c320 -2 382 -4 412 -18z"/>
<path d="M60 7096 c0 -6 5 -29 12 -51 6 -22 12 -42 13 -45 2 -10 37 -127 60
-205 13 -44 34 -114 45 -155 12 -41 24 -82 27 -90 3 -8 7 -19 8 -25 2 -5 13
-44 26 -85 12 -41 23 -77 24 -80 1 -9 57 -204 63 -220 3 -8 7 -22 9 -30 8 -30
9 -36 25 -85 22 -69 60 -195 63 -209 1 -6 4 -18 7 -26 3 -8 13 -40 21 -70 8
-30 29 -102 47 -160 17 -58 33 -114 36 -125 8 -30 10 -38 17 -55 6 -15 39
-127 43 -145 1 -5 10 -37 20 -70 10 -33 19 -62 19 -65 1 -3 8 -25 15 -50 7
-25 14 -47 15 -50 1 -3 7 -25 15 -50 7 -25 14 -49 16 -55 1 -5 23 -80 49 -165
25 -85 55 -186 66 -225 11 -38 24 -83 29 -100 4 -16 28 -97 53 -180 l44 -150
459 0 c299 0 459 3 459 10 0 6 5 24 12 40 11 30 122 396 128 425 2 8 13 44 25
80 12 36 24 72 25 80 2 8 10 34 19 58 8 23 15 43 15 45 0 1 2 9 5 17 3 8 14
49 26 90 12 41 24 82 27 90 3 8 7 20 8 25 2 6 19 62 38 125 20 63 50 163 68
223 18 59 36 107 39 107 6 0 16 -33 35 -115 3 -11 13 -50 24 -87 11 -38 17
-68 14 -68 -3 0 0 -7 7 -15 7 -8 10 -15 6 -15 -3 0 -1 -12 5 -27 9 -24 43
-142 55 -195 7 -30 11 -46 69 -253 31 -110 58 -209 59 -220 2 -11 6 -27 9 -35
3 -8 20 -67 36 -130 17 -63 36 -131 42 -150 5 -19 12 -44 14 -55 2 -11 4 -21
5 -22 2 -2 3 -9 4 -15 1 -10 99 -14 448 -16 l446 -2 16 47 c8 27 19 64 25 83
5 19 28 98 51 175 23 77 50 172 61 210 11 39 24 81 28 95 5 14 16 50 25 80 47
164 66 230 81 279 9 30 19 62 21 70 7 29 55 196 61 211 6 14 9 25 16 53 15 54
31 109 42 144 8 23 17 52 19 65 3 13 24 84 46 158 23 74 43 142 45 152 4 19
85 296 93 318 3 8 6 20 8 25 1 6 21 73 44 150 23 77 43 147 45 155 6 22 55
193 60 208 3 7 4 13 4 15 0 1 4 14 10 30 6 15 13 38 15 50 6 26 62 215 71 240
4 9 3 18 -1 18 -5 1 -224 3 -486 4 l-478 1 -29 -95 c-46 -151 -74 -245 -77
-256 -3 -15 -130 -435 -160 -535 -15 -47 -27 -90 -28 -97 -6 -36 -26 3 -40 77
-1 3 -4 10 -8 16 -4 6 -10 26 -13 44 -3 18 -8 37 -11 42 -3 4 -7 16 -9 25 -4
21 -114 391 -122 413 -3 8 -7 20 -9 25 -7 24 -35 121 -38 130 -13 47 -49 165
-57 186 l-10 25 -585 0 -584 0 -12 -40 c-6 -23 -12 -45 -14 -51 -10 -40 -36
-143 -54 -210 -12 -44 -24 -88 -26 -97 -2 -10 -6 -26 -8 -35 -2 -10 -14 -54
-26 -98 -11 -44 -28 -107 -36 -140 -20 -79 -20 -77 -45 -170 -11 -44 -23 -87
-24 -95 -2 -8 -4 -16 -5 -17 -3 -4 -7 -20 -9 -33 0 -5 -6 -10 -13 -10 -6 0 -9
3 -5 6 3 3 -1 29 -10 57 -8 28 -16 58 -18 66 -2 9 -10 37 -18 64 -8 26 -13 47
-11 47 3 0 0 8 -5 18 -5 10 -21 63 -36 117 -15 55 -35 130 -46 168 -10 37 -28
97 -38 135 -19 67 -49 174 -57 202 -20 77 -29 106 -32 110 -8 11 -1112 6
-1112 -4z"/>
<path d="M12378 7089 c-100 -23 -116 -29 -168 -57 -25 -14 -57 -31 -71 -38
-39 -21 -149 -130 -196 -194 -65 -90 -134 -248 -150 -346 -13 -77 -6 -258 13
-344 3 -14 7 -36 10 -50 21 -114 87 -269 160 -381 74 -112 132 -181 283 -334
145 -148 171 -188 152 -237 -18 -47 -80 -59 -276 -53 -93 3 -442 6 -775 8
-333 2 -617 7 -633 11 -95 23 -256 103 -257 127 0 4 21 10 48 14 80 12 163 59
244 138 89 87 96 96 152 194 61 105 103 214 132 342 20 89 38 232 35 291 0 8
-1 29 -1 45 -2 95 -46 238 -108 355 -96 180 -257 333 -448 429 -43 22 -90 42
-104 45 -14 3 -50 12 -80 20 -48 13 -203 16 -1161 16 -883 0 -1108 -2 -1111
-12 -2 -7 -4 -690 -3 -1518 l0 -1505 546 0 546 0 -1 180 c-1 99 2 190 6 203 4
12 4 22 0 22 -9 0 -7 134 2 149 4 6 4 11 -1 11 -4 0 -7 96 -6 212 2 253 1 237
16 217 13 -17 100 -117 139 -160 12 -14 50 -56 83 -94 33 -37 76 -84 95 -105
19 -21 64 -70 100 -110 96 -107 277 -287 350 -350 36 -30 67 -57 70 -60 48
-48 156 -97 236 -107 90 -10 2627 1 2684 12 14 2 36 7 50 10 14 3 36 7 50 10
44 8 178 65 243 103 86 51 131 86 204 160 56 56 155 191 159 217 1 5 12 32 24
58 12 26 24 58 26 70 3 12 6 27 8 32 23 82 27 284 9 383 -17 90 -67 203 -111
250 -6 7 -17 23 -23 34 -6 11 -20 31 -32 45 -43 50 -63 72 -97 113 -19 23 -42
49 -50 59 -8 9 -35 41 -60 71 -51 62 -62 75 -156 185 -37 44 -90 104 -116 133
-55 61 -70 112 -43 142 37 41 84 44 835 45 l715 0 1 456 1 455 -1058 0 c-956
0 -1064 -2 -1131 -17z m-3003 -773 c7 -2 15 -2 18 1 8 7 443 6 497 -1 203 -30
295 -326 146 -471 -69 -66 -84 -68 -496 -70 -201 -1 -369 0 -375 2 -11 4 -13
89 -2 99 3 4 4 11 0 17 -3 6 -7 103 -7 217 l-1 206 29 2 c17 2 31 4 32 5 4 4
146 -2 159 -7z"/>
<path d="M5165 7078 c-4 -12 -26 -84 -60 -198 -11 -36 -33 -114 -40 -140 -7
-25 -31 -106 -45 -150 -10 -30 -21 -68 -26 -85 -11 -45 -11 -44 -39 -135 -14
-47 -28 -95 -31 -107 -2 -12 -9 -35 -15 -50 -6 -16 -12 -35 -14 -43 -2 -8 -15
-55 -30 -105 -15 -49 -36 -121 -47 -160 -10 -38 -22 -77 -25 -85 -3 -8 -7 -19
-8 -25 -2 -5 -35 -118 -74 -250 -40 -132 -73 -247 -75 -255 -2 -8 -20 -69 -40
-135 -21 -66 -39 -128 -41 -138 -2 -10 -9 -32 -15 -50 -6 -18 -22 -72 -36
-122 -14 -49 -32 -111 -40 -137 -8 -27 -20 -69 -28 -95 -8 -27 -31 -104 -51
-173 -20 -69 -38 -129 -39 -135 -1 -5 -14 -48 -28 -95 -26 -86 -39 -134 -38
-147 0 -5 222 -8 494 -9 l495 0 22 60 c13 34 24 63 24 66 1 3 6 16 13 30 6 14
31 79 57 146 l46 121 192 -1 c106 -1 200 2 209 6 9 5 19 5 21 1 4 -7 436 -9
462 -3 6 1 12 1 15 0 3 -1 39 -3 80 -3 l74 -2 22 -60 c12 -33 46 -125 75 -205
29 -80 55 -147 57 -150 2 -3 222 -5 489 -6 l485 0 -5 25 c-7 37 -10 46 -67
246 -29 99 -56 198 -62 220 -5 22 -11 47 -13 55 -2 8 -20 71 -40 140 -20 69
-43 150 -51 180 -8 30 -19 69 -24 85 -4 17 -15 57 -24 90 -9 33 -21 71 -26 85
-5 14 -12 36 -14 50 -3 14 -10 41 -16 60 -6 19 -13 42 -14 50 -2 8 -16 58 -31
110 -49 177 -77 275 -79 285 -1 6 -10 35 -19 65 -9 30 -23 80 -31 110 -8 30
-47 170 -86 310 -40 140 -76 269 -80 285 -5 17 -15 53 -23 80 -7 28 -24 88
-36 135 -13 47 -25 92 -28 100 -7 17 -10 27 -17 55 -3 11 -9 35 -15 53 -5 17
-7 32 -4 32 3 0 1 6 -4 13 -6 6 -16 36 -24 65 l-13 52 -798 0 c-630 0 -800 -3
-803 -12z m851 -825 c9 -32 20 -67 24 -78 5 -11 11 -31 13 -45 3 -14 19 -72
37 -130 17 -58 33 -109 34 -115 2 -5 9 -30 16 -55 7 -25 14 -49 16 -55 1 -5
23 -82 49 -170 26 -88 51 -173 55 -190 16 -56 32 -110 46 -154 8 -24 12 -46
10 -49 -3 -3 -152 -5 -331 -6 l-326 -1 4 25 c2 14 23 86 46 160 24 74 44 140
45 145 3 14 84 273 97 310 9 27 33 105 43 145 3 8 5 15 6 15 1 0 3 7 5 15 6
28 89 290 92 290 1 0 10 -26 19 -57z"/>
</g>
</svg>
